<svg width="192" height="192" viewBox="0 0 466 432" fill="none" xmlns="http://www.w3.org/2000/svg"><g clip-path="url(#clip0_1_3)"><path d="M112.94 184.302H96.98C92.192 184.302 89 181.122 89 176.352V160.452C89 155.682 92.192 152.501 96.98 152.501H112.94C117.728 152.501 120.92 155.682 120.92 160.452V176.352C120.92 181.122 117.728 184.302 112.94 184.302ZM120.92 295.604V216.103C120.92 211.333 117.728 208.152 112.94 208.152H96.98C92.192 208.152 89 211.333 89 216.103V295.604C89 300.374 92.192 303.554 96.98 303.554H112.94C117.728 303.554 120.92 300.374 120.92 295.604ZM376.28 160.452V144.551C376.28 139.781 373.088 136.601 368.3 136.601H352.34C347.552 136.601 344.36 139.781 344.36 144.551V160.452C344.36 165.222 347.552 168.402 352.34 168.402H368.3C373.088 168.402 376.28 165.222 376.28 160.452ZM376.28 311.504V200.202C376.28 195.432 373.088 192.252 368.3 192.252H352.34C347.552 192.252 344.36 195.432 344.36 200.202V311.504C344.36 316.274 347.552 319.455 352.34 319.455H368.3C373.088 319.455 376.28 316.274 376.28 311.504ZM224.66 104.801H240.62C245.408 104.801 248.6 101.621 248.6 96.8504V80.9501C248.6 76.1801 245.408 73 240.62 73H224.66C219.872 73 216.68 76.1801 216.68 80.9501V96.8504C216.68 101.621 219.872 104.801 224.66 104.801ZM224.66 391.006H240.62C245.408 391.006 248.6 387.826 248.6 383.056V136.601C248.6 131.831 245.408 128.651 240.62 128.651H224.66C219.872 128.651 216.68 131.831 216.68 136.601V383.056C216.68 387.826 219.872 391.006 224.66 391.006ZM184.76 343.305V327.405C184.76 322.635 181.568 319.455 176.78 319.455H160.82C156.032 319.455 152.84 322.635 152.84 327.405V343.305C152.84 348.075 156.032 351.255 160.82 351.255H176.78C181.568 351.255 184.76 348.075 184.76 343.305ZM184.76 287.654V120.701C184.76 115.931 181.568 112.751 176.78 112.751H160.82C156.032 112.751 152.84 115.931 152.84 120.701V287.654C152.84 292.424 156.032 295.604 160.82 295.604H176.78C181.568 295.604 184.76 292.424 184.76 287.654ZM288.5 391.006H304.46C309.248 391.006 312.44 387.826 312.44 383.056V367.155C312.44 362.385 309.248 359.205 304.46 359.205H288.5C283.712 359.205 280.52 362.385 280.52 367.155V383.056C280.52 387.826 283.712 391.006 288.5 391.006ZM288.5 335.355H304.46C309.248 335.355 312.44 332.175 312.44 327.405V96.8504C312.44 92.0803 309.248 88.9003 304.46 88.9003H288.5C283.712 88.9003 280.52 92.0803 280.52 96.8504V327.405C280.52 332.175 283.712 335.355 288.5 335.355Z" fill="#C06363" /></g><defs><clipPath id="clip0_1_3"><rect width="287.28" height="318.006" fill="white" transform="translate(89 73)" /></clipPath></defs></svg>